<?xml version="1.0" encoding="utf-8"?>
<!-- Generator: Adobe Illustrator 23.0.3, SVG Export Plug-In . SVG Version: 6.00 Build 0)  -->
<!DOCTYPE svg PUBLIC "-//W3C//DTD SVG 1.1//EN" "http://www.w3.org/Graphics/SVG/1.1/DTD/svg11.dtd" [
	<!ENTITY ns_extend "http://ns.adobe.com/Extensibility/1.0/">
	<!ENTITY ns_ai "http://ns.adobe.com/AdobeIllustrator/10.0/">
	<!ENTITY ns_graphs "http://ns.adobe.com/Graphs/1.0/">
	<!ENTITY ns_vars "http://ns.adobe.com/Variables/1.0/">
	<!ENTITY ns_imrep "http://ns.adobe.com/ImageReplacement/1.0/">
	<!ENTITY ns_sfw "http://ns.adobe.com/SaveForWeb/1.0/">
	<!ENTITY ns_custom "http://ns.adobe.com/GenericCustomNamespace/1.0/">
	<!ENTITY ns_adobe_xpath "http://ns.adobe.com/XPath/1.0/">
]>
<svg version="1.1" id="Layer_1" xmlns:x="&ns_extend;" xmlns:i="&ns_ai;" xmlns:graph="&ns_graphs;"
	 xmlns="http://www.w3.org/2000/svg" xmlns:xlink="http://www.w3.org/1999/xlink" x="0px" y="0px" viewBox="0 0 24 24"
	 style="enable-background:new 0 0 24 24;" xml:space="preserve">
<style type="text/css">
	.st0{fill:#77BED8;}
</style>
<metadata>
	<sfw  xmlns="&ns_sfw;">
		<slices></slices>
		<sliceSourceBounds  bottomLeftOrigin="true" height="3" width="3" x="10.5" y="12"></sliceSourceBounds>
	</sfw>
</metadata>
<path class="st0" d="M12.4,9.8c-0.1,0-0.1,0-0.4,0c-0.2,0-0.3,0-0.4,0c-0.2,0-0.3,0.1-0.4,0.4c0,0.1,0,0.1,0,0.4s0,0.3,0,0.4
	c0,0.2,0.1,0.3,0.4,0.4c0.1,0,0.1,0,0.4,0c0.2,0,0.3,0,0.4,0c0.2,0,0.3-0.1,0.4-0.4c0-0.1,0-0.1,0-0.4c0-0.2,0-0.3,0-0.4
	C12.7,9.9,12.6,9.8,12.4,9.8z M12,10.9c-0.2,0-0.4-0.2-0.4-0.4c0-0.2,0.2-0.4,0.4-0.4s0.4,0.2,0.4,0.4S12.2,10.9,12,10.9z
	 M12.5,10.1c-0.1,0-0.1,0-0.1-0.1s0-0.1,0.1-0.1c0.1,0,0.1,0,0.1,0.1C12.6,10.1,12.5,10.1,12.5,10.1z M12.3,10.5
	c0,0.2-0.1,0.3-0.3,0.3c-0.2,0-0.3-0.1-0.3-0.3s0.1-0.3,0.3-0.3C12.2,10.2,12.3,10.3,12.3,10.5z M12,9c-0.8,0-1.5,0.7-1.5,1.5
	S11.2,12,12,12c0.8,0,1.5-0.7,1.5-1.5S12.8,9,12,9z M12.9,10.9c0,0.3-0.2,0.5-0.5,0.5c-0.1,0-0.1,0-0.4,0c-0.2,0-0.3,0-0.4,0
	c-0.3,0-0.5-0.2-0.5-0.5c0-0.1,0-0.1,0-0.4s0-0.3,0-0.4c0-0.3,0.2-0.5,0.5-0.5c0.1,0,0.1,0,0.4,0c0.2,0,0.3,0,0.4,0
	c0.3,0,0.5,0.2,0.5,0.5c0,0.1,0,0.1,0,0.4S12.9,10.8,12.9,10.9z"/>
</svg>
