<svg id="Layer_1" data-name="Layer 1" xmlns="http://www.w3.org/2000/svg" viewBox="0 0 3 3"><defs><style>.cls-1{fill:#77bed8;}</style></defs><title>in</title><path class="cls-1" d="M12.35,9.79h-.7a.33.33,0,0,0-.36.36,2.66,2.66,0,0,0,0,.35,2.66,2.66,0,0,0,0,.35.33.33,0,0,0,.36.36h.7a.33.33,0,0,0,.36-.36,2.66,2.66,0,0,0,0-.35,2.66,2.66,0,0,0,0-.35A.33.33,0,0,0,12.35,9.79ZM12,11a.45.45,0,1,1,.45-.45A.45.45,0,0,1,12,11Zm.47-.81a.11.11,0,0,1-.11-.11.11.11,0,0,1,.11-.1.1.1,0,0,1,.1.1A.1.1,0,0,1,12.47,10.14Zm-.18.36a.29.29,0,1,1-.29-.29A.29.29,0,0,1,12.29,10.5ZM12,9a1.5,1.5,0,1,0,1.5,1.5A1.5,1.5,0,0,0,12,9Zm.87,1.86a.48.48,0,0,1-.51.51h-.72a.48.48,0,0,1-.51-.51c0-.09,0-.12,0-.36s0-.27,0-.36a.48.48,0,0,1,.51-.51h.72a.48.48,0,0,1,.51.51v.72Z" transform="translate(-10.5 -9)"/></svg>