<?xml version="1.0" encoding="utf-8"?>
<!-- Generator: Adobe Illustrator 23.0.3, SVG Export Plug-In . SVG Version: 6.00 Build 0)  -->
<!DOCTYPE svg PUBLIC "-//W3C//DTD SVG 1.1//EN" "http://www.w3.org/Graphics/SVG/1.1/DTD/svg11.dtd" [
	<!ENTITY ns_extend "http://ns.adobe.com/Extensibility/1.0/">
	<!ENTITY ns_ai "http://ns.adobe.com/AdobeIllustrator/10.0/">
	<!ENTITY ns_graphs "http://ns.adobe.com/Graphs/1.0/">
	<!ENTITY ns_vars "http://ns.adobe.com/Variables/1.0/">
	<!ENTITY ns_imrep "http://ns.adobe.com/ImageReplacement/1.0/">
	<!ENTITY ns_sfw "http://ns.adobe.com/SaveForWeb/1.0/">
	<!ENTITY ns_custom "http://ns.adobe.com/GenericCustomNamespace/1.0/">
	<!ENTITY ns_adobe_xpath "http://ns.adobe.com/XPath/1.0/">
]>
<svg version="1.1" id="Layer_1" xmlns:x="&ns_extend;" xmlns:i="&ns_ai;" xmlns:graph="&ns_graphs;"
	 xmlns="http://www.w3.org/2000/svg" xmlns:xlink="http://www.w3.org/1999/xlink" x="0px" y="0px" viewBox="0 0 24 24"
	 style="enable-background:new 0 0 24 24;" xml:space="preserve">
<style type="text/css">
	.st0{fill:#77BED8;}
</style>
<metadata>
	<sfw  xmlns="&ns_sfw;">
		<slices></slices>
		<sliceSourceBounds  bottomLeftOrigin="true" height="3" width="3" x="10.5" y="12"></sliceSourceBounds>
	</sfw>
</metadata>
<path class="st0" d="M12,9c-0.8,0-1.5,0.7-1.5,1.5S11.2,12,12,12s1.5-0.7,1.5-1.5S12.8,9,12,9z M12.8,10.2c0,0.5-0.4,1.1-1,1.1
	c-0.2,0-0.4-0.1-0.6-0.2c0.2,0,0.4,0,0.5-0.1c-0.2,0-0.3-0.1-0.3-0.2c0.1,0,0.1,0,0.2,0c-0.2,0-0.3-0.2-0.3-0.4c0,0,0.1,0,0.2,0
	c-0.2-0.1-0.2-0.3-0.1-0.5c0.2,0.2,0.4,0.4,0.7,0.4c-0.1-0.2,0.1-0.4,0.3-0.4c0.1,0,0.2,0,0.3,0.1c0.1,0,0.2,0,0.2-0.1
	c0,0.1-0.1,0.2-0.2,0.2c0.1,0,0.1,0,0.2-0.1C12.9,10.1,12.8,10.2,12.8,10.2z"/>
</svg>
